<svg width="11" height="12" viewBox="0 0 11 12" fill="none" xmlns="http://www.w3.org/2000/svg">
  <path fill="white" stroke-width="0.4" stroke="white" d="M3.2 4C3.3 4 3.4 4 3.6 4L6.75 8.81L5.7 10.15C5.7 10.15 5.53985 10.3884 5.31824 10.6092C5.00434 10.922 4.6582 11.3 4.28711 11.3C4.19141 11.3 4.2 11.3 4.1 11.3V11.5H6.4V11.3C6.2 11.3 6 11.3 5.9 11.2C5.8 11.1 5.8 11 5.8 10.9C5.8 10.6301 5.9 10.5547 6.16055 10.226L7 9.2L7.65291 10.226C7.82889 10.5025 8 10.7344 8 10.9C8 11.0656 7.90095 11.3 7.65291 11.3C7.55291 11.3 7.6 11.3 7.4 11.3V11.5H10.2V11.3C9.9 11.3 9.7 11.2 9.5 11C9.24121 10.7412 9 10.5 8.6 10L7.6 8.5L8.48711 7.35309C8.55228 7.28792 8.61656 7.21558 8.68081 7.13924C9.09787 6.6437 9.64859 6 10.2 6.01309V5.81309H7.8V6.01309C8 6.01309 8.2 6.01309 8.3 6.01309C8.45586 6.01309 8.6 6.20329 8.6 6.31309C8.6 6.62136 8.43963 6.81922 8.2462 7.03337L7.3 8.1L4.5 3.9C5.1 3.8 5.4 3.61 5.7 3.31C6 3.01 6.2 2.6 6.2 2.2C6.2 1.8 6.08711 1.47 5.78711 1.17C5.52798 0.910875 5.3 0.8 5 0.7C4.6 0.6 4.1 0.5 3.4 0.5H1V0.7H1.2C1.82201 0.7 2 1.14292 2 1.7V6C2 6.59634 2 6.9 1.2 6.9H1V7.1H3.8V6.9H3.6C2.9041 6.9 2.9 6.61047 2.9 6V4H3H3.2ZM3 3.7C3 3.7 3 3.7 2.9 3.7L2.88711 1C3.18711 0.9 3.4 0.9 3.6 0.9C4.47782 0.9 5 1.42405 5 2.3C5 3.40743 4.15401 3.7 3.2 3.7H3Z"/>
</svg>
